<svg width="116" height="37" viewBox="0 0 116 37" fill="none" xmlns="http://www.w3.org/2000/svg">
<g opacity="0.93" filter="url(#filter0_ii_1_3)">
<path d="M7.59601 36.036C6.08401 36.036 4.75201 35.676 3.60001 34.956C2.47201 34.236 1.58401 33.228 0.936006 31.932C0.312006 30.636 5.49853e-06 29.148 5.49853e-06 27.468C5.49853e-06 25.644 0.360006 24.024 1.08001 22.608C1.80001 21.192 2.77201 20.076 3.99601 19.26C5.24401 18.444 6.66001 18.036 8.24401 18.036C9.08401 18.036 9.91201 18.204 10.728 18.54C11.544 18.852 12.228 19.284 12.78 19.836V18.36C12.996 18.288 13.248 18.228 13.536 18.18C13.824 18.132 14.124 18.108 14.436 18.108C15.012 18.108 15.552 18.192 16.056 18.36V29.232C16.056 30.552 16.224 31.5 16.56 32.076C16.92 32.652 17.484 32.94 18.252 32.94C18.588 32.94 18.84 33.084 19.008 33.372C19.2 33.66 19.296 34.044 19.296 34.524C19.296 34.908 19.188 35.256 18.972 35.568C18.78 35.88 18.456 36.036 18 36.036C15.72 36.036 14.184 35.1 13.392 33.228C12.696 34.116 11.856 34.812 10.872 35.316C9.88801 35.796 8.79601 36.036 7.59601 36.036ZM3.34801 27.468C3.34801 29.172 3.73201 30.516 4.50001 31.5C5.29201 32.46 6.37201 32.94 7.74001 32.94C9.25201 32.94 10.464 32.424 11.376 31.392C12.312 30.36 12.78 29.004 12.78 27.324V23.292C12.3 22.644 11.688 22.128 10.944 21.744C10.2 21.336 9.43201 21.132 8.64001 21.132C7.60801 21.132 6.69601 21.408 5.90401 21.96C5.11201 22.512 4.48801 23.268 4.03201 24.228C3.57601 25.164 3.34801 26.244 3.34801 27.468ZM19.0789 36.036C18.7669 36.036 18.5149 35.892 18.3229 35.604C18.1309 35.316 18.0349 34.944 18.0349 34.488C18.0349 33.456 18.4669 32.94 19.3309 32.94C20.0269 32.94 20.7349 32.832 21.4549 32.616C22.1749 32.376 23.0149 31.98 23.9749 31.428C23.0389 29.796 22.5709 27.876 22.5709 25.668C22.5709 24.18 22.8469 22.872 23.3989 21.744C23.9509 20.592 24.7189 19.692 25.7029 19.044C26.6869 18.372 27.8029 18.036 29.0509 18.036C30.1069 18.036 31.0429 18.288 31.8589 18.792C32.6749 19.272 33.3109 19.944 33.7669 20.808C34.2229 21.672 34.4509 22.668 34.4509 23.796C34.4509 25.332 33.9949 26.736 33.0829 28.008C32.1949 29.28 30.6829 30.66 28.5469 32.148C29.3149 32.7 30.3469 32.976 31.6429 32.976C31.9789 32.976 32.2429 33.12 32.4349 33.408C32.6269 33.696 32.7229 34.08 32.7229 34.56C32.7229 35.016 32.6149 35.376 32.3989 35.64C32.1829 35.904 31.8709 36.036 31.4629 36.036C30.3109 36.036 29.2309 35.844 28.2229 35.46C27.2149 35.076 26.3749 34.548 25.7029 33.876C23.3989 35.316 21.1909 36.036 19.0789 36.036ZM25.7029 25.38C25.7029 27.276 26.0389 28.788 26.7109 29.916C28.2709 28.836 29.4229 27.78 30.1669 26.748C30.9349 25.716 31.3189 24.732 31.3189 23.796C31.3189 22.932 31.1029 22.26 30.6709 21.78C30.2629 21.276 29.6869 21.024 28.9429 21.024C28.0069 21.024 27.2269 21.444 26.6029 22.284C26.0029 23.124 25.7029 24.156 25.7029 25.38ZM32.6287 36.036C32.2927 36.036 32.0167 35.892 31.8007 35.604C31.5847 35.316 31.4767 34.944 31.4767 34.488C31.4767 34.008 31.5967 33.636 31.8367 33.372C32.0767 33.108 32.3887 32.976 32.7727 32.976C34.6687 32.976 36.3367 32.484 37.7767 31.5C39.2407 30.516 40.3927 29.16 41.2327 27.432C42.0727 25.704 42.4927 23.724 42.4927 21.492V18.036H38.5327C38.3647 17.652 38.2807 17.172 38.2807 16.596C38.2807 16.02 38.3647 15.54 38.5327 15.156H42.4927V8.784C42.9487 8.616 43.5007 8.532 44.1487 8.532C44.7247 8.532 45.2767 8.616 45.8047 8.784V15.156H51.2047C51.3967 15.54 51.4927 16.02 51.4927 16.596C51.4927 17.172 51.3967 17.652 51.2047 18.036H45.8047V25.488C45.8047 27.888 46.1647 29.736 46.8847 31.032C47.6287 32.304 48.6727 32.94 50.0167 32.94C50.7127 32.94 51.0607 33.468 51.0607 34.524C51.0607 34.98 50.9407 35.34 50.7007 35.604C50.4847 35.892 50.1727 36.036 49.7647 36.036C48.1327 36.036 46.7647 35.532 45.6607 34.524C44.5567 33.516 43.7647 32.124 43.2847 30.348C42.1567 32.124 40.6807 33.516 38.8567 34.524C37.0327 35.532 34.9567 36.036 32.6287 36.036ZM50.8404 36.036C50.5284 36.036 50.2764 35.892 50.0844 35.604C49.8924 35.316 49.7964 34.944 49.7964 34.488C49.7964 34.008 49.9164 33.636 50.1564 33.372C50.3724 33.084 50.6724 32.94 51.0564 32.94C52.1124 32.94 53.1204 32.472 54.0804 31.536C55.0644 30.576 56.1564 28.98 57.3564 26.748V7.488C57.3564 5.088 57.8604 3.24 58.8684 1.944C59.9004 0.648 61.3884 0.0119996 63.3324 0.0359993C65.1084 0.059999 66.4884 0.731999 67.4724 2.052C68.4804 3.372 68.9844 5.088 68.9844 7.2C68.9844 8.904 68.6724 10.8 68.0484 12.888C67.4244 14.976 66.5964 16.98 65.5644 18.9C65.8044 18.876 66.0564 18.864 66.3204 18.864C68.1204 18.864 69.5484 19.5 70.6044 20.772C71.6844 22.044 72.2244 23.748 72.2244 25.884V28.98C72.2244 30.372 72.3924 31.38 72.7284 32.004C73.0884 32.628 73.6764 32.94 74.4924 32.94C74.8764 32.94 75.1524 33.096 75.3204 33.408C75.4884 33.696 75.5724 34.068 75.5724 34.524C75.5724 34.98 75.4524 35.34 75.2124 35.604C74.9964 35.892 74.6844 36.036 74.2764 36.036C72.5484 36.036 71.2164 35.484 70.2804 34.38C69.3684 33.252 68.9124 31.668 68.9124 29.628V25.812C68.9124 24.588 68.6364 23.64 68.0844 22.968C67.5564 22.272 66.8004 21.924 65.8164 21.924C64.8564 21.924 63.9924 22.248 63.2244 22.896C62.4564 23.52 61.8444 24.384 61.3884 25.488C60.9324 26.592 60.6924 27.864 60.6684 29.304V35.532C60.4284 35.604 60.1644 35.664 59.8764 35.712C59.5884 35.76 59.3124 35.784 59.0484 35.784C58.4964 35.784 57.9324 35.7 57.3564 35.532V32.58C56.3724 33.852 55.3644 34.752 54.3324 35.28C53.3244 35.784 52.1604 36.036 50.8404 36.036ZM60.5604 7.452V21.348C61.6404 19.692 62.5644 18.024 63.3324 16.344C64.1244 14.664 64.7244 13.044 65.1324 11.484C65.5644 9.9 65.7804 8.46 65.7804 7.164C65.7804 5.82 65.5524 4.8 65.0964 4.104C64.6644 3.384 64.0284 3.024 63.1884 3.024C61.4364 3.024 60.5604 4.5 60.5604 7.452ZM75.3697 36.036C75.0577 36.036 74.8057 35.892 74.6137 35.604C74.4217 35.316 74.3257 34.944 74.3257 34.488C74.3257 33.456 74.7577 32.94 75.6217 32.94C76.3177 32.94 77.0257 32.832 77.7457 32.616C78.4657 32.376 79.3057 31.98 80.2657 31.428C79.3297 29.796 78.8617 27.876 78.8617 25.668C78.8617 24.18 79.1377 22.872 79.6897 21.744C80.2417 20.592 81.0097 19.692 81.9937 19.044C82.9777 18.372 84.0937 18.036 85.3417 18.036C86.3977 18.036 87.3337 18.288 88.1497 18.792C88.9657 19.272 89.6017 19.944 90.0577 20.808C90.5137 21.672 90.7417 22.668 90.7417 23.796C90.7417 25.332 90.2857 26.736 89.3737 28.008C88.4857 29.28 86.9737 30.66 84.8377 32.148C85.6057 32.7 86.6377 32.976 87.9337 32.976C88.2697 32.976 88.5337 33.12 88.7257 33.408C88.9177 33.696 89.0137 34.08 89.0137 34.56C89.0137 35.016 88.9057 35.376 88.6897 35.64C88.4737 35.904 88.1617 36.036 87.7537 36.036C86.6017 36.036 85.5217 35.844 84.5137 35.46C83.5057 35.076 82.6657 34.548 81.9937 33.876C79.6897 35.316 77.4817 36.036 75.3697 36.036ZM81.9937 25.38C81.9937 27.276 82.3297 28.788 83.0017 29.916C84.5617 28.836 85.7137 27.78 86.4577 26.748C87.2257 25.716 87.6097 24.732 87.6097 23.796C87.6097 22.932 87.3937 22.26 86.9617 21.78C86.5537 21.276 85.9777 21.024 85.2337 21.024C84.2977 21.024 83.5177 21.444 82.8937 22.284C82.2937 23.124 81.9937 24.156 81.9937 25.38ZM88.9194 36.036C88.5834 36.036 88.3074 35.892 88.0914 35.604C87.8754 35.316 87.7674 34.956 87.7674 34.524C87.7674 33.492 88.1994 32.976 89.0634 32.976C91.9674 32.976 94.2354 31.908 95.8674 29.772C96.5394 28.884 97.0554 27.864 97.4154 26.712C97.7754 25.56 97.9554 24.372 97.9554 23.148C97.9554 22.74 97.9314 22.332 97.8834 21.924C97.8594 21.516 97.8114 21.192 97.7394 20.952C97.4754 20.664 97.2114 20.28 96.9474 19.8C96.6834 19.32 96.4674 18.84 96.2994 18.36C96.1554 17.856 96.0834 17.424 96.0834 17.064C96.3954 16.608 96.8994 16.248 97.5954 15.984C98.2914 15.72 98.9514 15.648 99.5754 15.768C100.031 16.608 100.403 17.64 100.691 18.864C101.291 18.816 102.023 18.684 102.887 18.468C103.655 18.3 104.267 18.192 104.723 18.144C105.203 18.072 105.611 18.036 105.947 18.036C107.243 18.036 108.263 18.528 109.007 19.512C109.751 20.472 110.123 21.78 110.123 23.436V29.232C110.123 30.552 110.291 31.5 110.627 32.076C110.987 32.652 111.551 32.94 112.319 32.94C112.583 32.94 112.871 32.88 113.183 32.76C113.495 32.64 113.819 32.46 114.155 32.22C114.563 32.412 114.899 32.748 115.163 33.228C115.427 33.684 115.547 34.14 115.523 34.596C115.139 35.028 114.647 35.376 114.047 35.64C113.447 35.904 112.799 36.036 112.103 36.036H112.067C108.587 36.036 106.847 33.9 106.847 29.628V24.048C106.847 22.968 106.727 22.212 106.487 21.78C106.247 21.348 105.815 21.132 105.191 21.132C104.975 21.132 104.735 21.156 104.471 21.204C104.207 21.252 103.739 21.348 103.067 21.492C102.275 21.66 101.627 21.78 101.123 21.852C101.147 22.212 101.159 22.572 101.159 22.932C101.159 24.66 100.895 26.328 100.367 27.936C99.8634 29.52 99.1314 30.888 98.1714 32.04C95.9874 34.704 92.9034 36.036 88.9194 36.036Z" fill="url(#paint0_linear_1_3)" fill-opacity="0.2" style="mix-blend-mode:plus-lighter"/>
<path d="M7.59601 36.036C6.08401 36.036 4.75201 35.676 3.60001 34.956C2.47201 34.236 1.58401 33.228 0.936006 31.932C0.312006 30.636 5.49853e-06 29.148 5.49853e-06 27.468C5.49853e-06 25.644 0.360006 24.024 1.08001 22.608C1.80001 21.192 2.77201 20.076 3.99601 19.26C5.24401 18.444 6.66001 18.036 8.24401 18.036C9.08401 18.036 9.91201 18.204 10.728 18.54C11.544 18.852 12.228 19.284 12.78 19.836V18.36C12.996 18.288 13.248 18.228 13.536 18.18C13.824 18.132 14.124 18.108 14.436 18.108C15.012 18.108 15.552 18.192 16.056 18.36V29.232C16.056 30.552 16.224 31.5 16.56 32.076C16.92 32.652 17.484 32.94 18.252 32.94C18.588 32.94 18.84 33.084 19.008 33.372C19.2 33.66 19.296 34.044 19.296 34.524C19.296 34.908 19.188 35.256 18.972 35.568C18.78 35.88 18.456 36.036 18 36.036C15.72 36.036 14.184 35.1 13.392 33.228C12.696 34.116 11.856 34.812 10.872 35.316C9.88801 35.796 8.79601 36.036 7.59601 36.036ZM3.34801 27.468C3.34801 29.172 3.73201 30.516 4.50001 31.5C5.29201 32.46 6.37201 32.94 7.74001 32.94C9.25201 32.94 10.464 32.424 11.376 31.392C12.312 30.36 12.78 29.004 12.78 27.324V23.292C12.3 22.644 11.688 22.128 10.944 21.744C10.2 21.336 9.43201 21.132 8.64001 21.132C7.60801 21.132 6.69601 21.408 5.90401 21.96C5.11201 22.512 4.48801 23.268 4.03201 24.228C3.57601 25.164 3.34801 26.244 3.34801 27.468ZM19.0789 36.036C18.7669 36.036 18.5149 35.892 18.3229 35.604C18.1309 35.316 18.0349 34.944 18.0349 34.488C18.0349 33.456 18.4669 32.94 19.3309 32.94C20.0269 32.94 20.7349 32.832 21.4549 32.616C22.1749 32.376 23.0149 31.98 23.9749 31.428C23.0389 29.796 22.5709 27.876 22.5709 25.668C22.5709 24.18 22.8469 22.872 23.3989 21.744C23.9509 20.592 24.7189 19.692 25.7029 19.044C26.6869 18.372 27.8029 18.036 29.0509 18.036C30.1069 18.036 31.0429 18.288 31.8589 18.792C32.6749 19.272 33.3109 19.944 33.7669 20.808C34.2229 21.672 34.4509 22.668 34.4509 23.796C34.4509 25.332 33.9949 26.736 33.0829 28.008C32.1949 29.28 30.6829 30.66 28.5469 32.148C29.3149 32.7 30.3469 32.976 31.6429 32.976C31.9789 32.976 32.2429 33.12 32.4349 33.408C32.6269 33.696 32.7229 34.08 32.7229 34.56C32.7229 35.016 32.6149 35.376 32.3989 35.64C32.1829 35.904 31.8709 36.036 31.4629 36.036C30.3109 36.036 29.2309 35.844 28.2229 35.46C27.2149 35.076 26.3749 34.548 25.7029 33.876C23.3989 35.316 21.1909 36.036 19.0789 36.036ZM25.7029 25.38C25.7029 27.276 26.0389 28.788 26.7109 29.916C28.2709 28.836 29.4229 27.78 30.1669 26.748C30.9349 25.716 31.3189 24.732 31.3189 23.796C31.3189 22.932 31.1029 22.26 30.6709 21.78C30.2629 21.276 29.6869 21.024 28.9429 21.024C28.0069 21.024 27.2269 21.444 26.6029 22.284C26.0029 23.124 25.7029 24.156 25.7029 25.38ZM32.6287 36.036C32.2927 36.036 32.0167 35.892 31.8007 35.604C31.5847 35.316 31.4767 34.944 31.4767 34.488C31.4767 34.008 31.5967 33.636 31.8367 33.372C32.0767 33.108 32.3887 32.976 32.7727 32.976C34.6687 32.976 36.3367 32.484 37.7767 31.5C39.2407 30.516 40.3927 29.16 41.2327 27.432C42.0727 25.704 42.4927 23.724 42.4927 21.492V18.036H38.5327C38.3647 17.652 38.2807 17.172 38.2807 16.596C38.2807 16.02 38.3647 15.54 38.5327 15.156H42.4927V8.784C42.9487 8.616 43.5007 8.532 44.1487 8.532C44.7247 8.532 45.2767 8.616 45.8047 8.784V15.156H51.2047C51.3967 15.54 51.4927 16.02 51.4927 16.596C51.4927 17.172 51.3967 17.652 51.2047 18.036H45.8047V25.488C45.8047 27.888 46.1647 29.736 46.8847 31.032C47.6287 32.304 48.6727 32.94 50.0167 32.94C50.7127 32.94 51.0607 33.468 51.0607 34.524C51.0607 34.98 50.9407 35.34 50.7007 35.604C50.4847 35.892 50.1727 36.036 49.7647 36.036C48.1327 36.036 46.7647 35.532 45.6607 34.524C44.5567 33.516 43.7647 32.124 43.2847 30.348C42.1567 32.124 40.6807 33.516 38.8567 34.524C37.0327 35.532 34.9567 36.036 32.6287 36.036ZM50.8404 36.036C50.5284 36.036 50.2764 35.892 50.0844 35.604C49.8924 35.316 49.7964 34.944 49.7964 34.488C49.7964 34.008 49.9164 33.636 50.1564 33.372C50.3724 33.084 50.6724 32.94 51.0564 32.94C52.1124 32.94 53.1204 32.472 54.0804 31.536C55.0644 30.576 56.1564 28.98 57.3564 26.748V7.488C57.3564 5.088 57.8604 3.24 58.8684 1.944C59.9004 0.648 61.3884 0.0119996 63.3324 0.0359993C65.1084 0.059999 66.4884 0.731999 67.4724 2.052C68.4804 3.372 68.9844 5.088 68.9844 7.2C68.9844 8.904 68.6724 10.8 68.0484 12.888C67.4244 14.976 66.5964 16.98 65.5644 18.9C65.8044 18.876 66.0564 18.864 66.3204 18.864C68.1204 18.864 69.5484 19.5 70.6044 20.772C71.6844 22.044 72.2244 23.748 72.2244 25.884V28.98C72.2244 30.372 72.3924 31.38 72.7284 32.004C73.0884 32.628 73.6764 32.94 74.4924 32.94C74.8764 32.94 75.1524 33.096 75.3204 33.408C75.4884 33.696 75.5724 34.068 75.5724 34.524C75.5724 34.98 75.4524 35.34 75.2124 35.604C74.9964 35.892 74.6844 36.036 74.2764 36.036C72.5484 36.036 71.2164 35.484 70.2804 34.38C69.3684 33.252 68.9124 31.668 68.9124 29.628V25.812C68.9124 24.588 68.6364 23.64 68.0844 22.968C67.5564 22.272 66.8004 21.924 65.8164 21.924C64.8564 21.924 63.9924 22.248 63.2244 22.896C62.4564 23.52 61.8444 24.384 61.3884 25.488C60.9324 26.592 60.6924 27.864 60.6684 29.304V35.532C60.4284 35.604 60.1644 35.664 59.8764 35.712C59.5884 35.76 59.3124 35.784 59.0484 35.784C58.4964 35.784 57.9324 35.7 57.3564 35.532V32.58C56.3724 33.852 55.3644 34.752 54.3324 35.28C53.3244 35.784 52.1604 36.036 50.8404 36.036ZM60.5604 7.452V21.348C61.6404 19.692 62.5644 18.024 63.3324 16.344C64.1244 14.664 64.7244 13.044 65.1324 11.484C65.5644 9.9 65.7804 8.46 65.7804 7.164C65.7804 5.82 65.5524 4.8 65.0964 4.104C64.6644 3.384 64.0284 3.024 63.1884 3.024C61.4364 3.024 60.5604 4.5 60.5604 7.452ZM75.3697 36.036C75.0577 36.036 74.8057 35.892 74.6137 35.604C74.4217 35.316 74.3257 34.944 74.3257 34.488C74.3257 33.456 74.7577 32.94 75.6217 32.94C76.3177 32.94 77.0257 32.832 77.7457 32.616C78.4657 32.376 79.3057 31.98 80.2657 31.428C79.3297 29.796 78.8617 27.876 78.8617 25.668C78.8617 24.18 79.1377 22.872 79.6897 21.744C80.2417 20.592 81.0097 19.692 81.9937 19.044C82.9777 18.372 84.0937 18.036 85.3417 18.036C86.3977 18.036 87.3337 18.288 88.1497 18.792C88.9657 19.272 89.6017 19.944 90.0577 20.808C90.5137 21.672 90.7417 22.668 90.7417 23.796C90.7417 25.332 90.2857 26.736 89.3737 28.008C88.4857 29.28 86.9737 30.66 84.8377 32.148C85.6057 32.7 86.6377 32.976 87.9337 32.976C88.2697 32.976 88.5337 33.12 88.7257 33.408C88.9177 33.696 89.0137 34.08 89.0137 34.56C89.0137 35.016 88.9057 35.376 88.6897 35.64C88.4737 35.904 88.1617 36.036 87.7537 36.036C86.6017 36.036 85.5217 35.844 84.5137 35.46C83.5057 35.076 82.6657 34.548 81.9937 33.876C79.6897 35.316 77.4817 36.036 75.3697 36.036ZM81.9937 25.38C81.9937 27.276 82.3297 28.788 83.0017 29.916C84.5617 28.836 85.7137 27.78 86.4577 26.748C87.2257 25.716 87.6097 24.732 87.6097 23.796C87.6097 22.932 87.3937 22.26 86.9617 21.78C86.5537 21.276 85.9777 21.024 85.2337 21.024C84.2977 21.024 83.5177 21.444 82.8937 22.284C82.2937 23.124 81.9937 24.156 81.9937 25.38ZM88.9194 36.036C88.5834 36.036 88.3074 35.892 88.0914 35.604C87.8754 35.316 87.7674 34.956 87.7674 34.524C87.7674 33.492 88.1994 32.976 89.0634 32.976C91.9674 32.976 94.2354 31.908 95.8674 29.772C96.5394 28.884 97.0554 27.864 97.4154 26.712C97.7754 25.56 97.9554 24.372 97.9554 23.148C97.9554 22.74 97.9314 22.332 97.8834 21.924C97.8594 21.516 97.8114 21.192 97.7394 20.952C97.4754 20.664 97.2114 20.28 96.9474 19.8C96.6834 19.32 96.4674 18.84 96.2994 18.36C96.1554 17.856 96.0834 17.424 96.0834 17.064C96.3954 16.608 96.8994 16.248 97.5954 15.984C98.2914 15.72 98.9514 15.648 99.5754 15.768C100.031 16.608 100.403 17.64 100.691 18.864C101.291 18.816 102.023 18.684 102.887 18.468C103.655 18.3 104.267 18.192 104.723 18.144C105.203 18.072 105.611 18.036 105.947 18.036C107.243 18.036 108.263 18.528 109.007 19.512C109.751 20.472 110.123 21.78 110.123 23.436V29.232C110.123 30.552 110.291 31.5 110.627 32.076C110.987 32.652 111.551 32.94 112.319 32.94C112.583 32.94 112.871 32.88 113.183 32.76C113.495 32.64 113.819 32.46 114.155 32.22C114.563 32.412 114.899 32.748 115.163 33.228C115.427 33.684 115.547 34.14 115.523 34.596C115.139 35.028 114.647 35.376 114.047 35.64C113.447 35.904 112.799 36.036 112.103 36.036H112.067C108.587 36.036 106.847 33.9 106.847 29.628V24.048C106.847 22.968 106.727 22.212 106.487 21.78C106.247 21.348 105.815 21.132 105.191 21.132C104.975 21.132 104.735 21.156 104.471 21.204C104.207 21.252 103.739 21.348 103.067 21.492C102.275 21.66 101.627 21.78 101.123 21.852C101.147 22.212 101.159 22.572 101.159 22.932C101.159 24.66 100.895 26.328 100.367 27.936C99.8634 29.52 99.1314 30.888 98.1714 32.04C95.9874 34.704 92.9034 36.036 88.9194 36.036Z" fill="#F0F0F0" fill-opacity="0.8"/>
</g>
<defs>
<filter id="filter0_ii_1_3" x="0" y="-1" width="115.559" height="38.036" filterUnits="userSpaceOnUse" color-interpolation-filters="sRGB">
<feFlood flood-opacity="0" result="BackgroundImageFix"/>
<feBlend mode="normal" in="SourceGraphic" in2="BackgroundImageFix" result="shape"/>
<feColorMatrix in="SourceAlpha" type="matrix" values="0 0 0 0 0 0 0 0 0 0 0 0 0 0 0 0 0 0 127 0" result="hardAlpha"/>
<feOffset dy="1"/>
<feGaussianBlur stdDeviation="1"/>
<feComposite in2="hardAlpha" operator="arithmetic" k2="-1" k3="1"/>
<feColorMatrix type="matrix" values="0 0 0 0 1 0 0 0 0 1 0 0 0 0 1 0 0 0 0.13 0"/>
<feBlend mode="plus-lighter" in2="shape" result="effect1_innerShadow_1_3"/>
<feColorMatrix in="SourceAlpha" type="matrix" values="0 0 0 0 0 0 0 0 0 0 0 0 0 0 0 0 0 0 127 0" result="hardAlpha"/>
<feOffset dy="-1"/>
<feGaussianBlur stdDeviation="1.5"/>
<feComposite in2="hardAlpha" operator="arithmetic" k2="-1" k3="1"/>
<feColorMatrix type="matrix" values="0 0 0 0 0 0 0 0 0 0 0 0 0 0 0 0 0 0 0.15 0"/>
<feBlend mode="plus-lighter" in2="effect1_innerShadow_1_3" result="effect2_innerShadow_1_3"/>
</filter>
<linearGradient id="paint0_linear_1_3" x1="115.74" y1="36.532" x2="-1.25999" y2="36.532" gradientUnits="userSpaceOnUse">
<stop stop-color="#9FA3A9" stop-opacity="0"/>
<stop offset="0.5" stop-color="#E6E8EB" stop-opacity="0.5"/>
<stop offset="1" stop-color="#BFC2C7"/>
</linearGradient>
</defs>
</svg>
